<svg xmlns="http://www.w3.org/2000/svg" viewBox="0 0 128 128" fill="none">
  <!-- Shelf -->
  <rect x="16" y="96" width="96" height="10" rx="3" fill="#1a73e8"/>
  <!-- Left book page -->
  <path d="M64 30 C64 30 62 28 38 28 C28 28 22 30 22 30 L22 90 C22 90 28 88 38 88 C54 88 64 94 64 94 Z" fill="#e8f0fe" stroke="#1a73e8" stroke-width="3" stroke-linejoin="round"/>
  <!-- Right book page -->
  <path d="M64 30 C64 30 66 28 90 28 C100 28 106 30 106 30 L106 90 C106 90 100 88 90 88 C74 88 64 94 64 94 Z" fill="#e8f0fe" stroke="#1a73e8" stroke-width="3" stroke-linejoin="round"/>
  <!-- Spine -->
  <line x1="64" y1="30" x2="64" y2="94" stroke="#1a73e8" stroke-width="3" stroke-linecap="round"/>
  <!-- Left page lines -->
  <line x1="32" y1="42" x2="56" y2="42" stroke="#1a73e8" stroke-width="2" stroke-linecap="round" opacity="0.35"/>
  <line x1="32" y1="52" x2="54" y2="52" stroke="#1a73e8" stroke-width="2" stroke-linecap="round" opacity="0.35"/>
  <line x1="32" y1="62" x2="56" y2="62" stroke="#1a73e8" stroke-width="2" stroke-linecap="round" opacity="0.35"/>
  <line x1="32" y1="72" x2="52" y2="72" stroke="#1a73e8" stroke-width="2" stroke-linecap="round" opacity="0.35"/>
  <!-- Right page lines -->
  <line x1="72" y1="42" x2="96" y2="42" stroke="#1a73e8" stroke-width="2" stroke-linecap="round" opacity="0.35"/>
  <line x1="74" y1="52" x2="96" y2="52" stroke="#1a73e8" stroke-width="2" stroke-linecap="round" opacity="0.35"/>
  <line x1="72" y1="62" x2="96" y2="62" stroke="#1a73e8" stroke-width="2" stroke-linecap="round" opacity="0.35"/>
  <line x1="76" y1="72" x2="96" y2="72" stroke="#1a73e8" stroke-width="2" stroke-linecap="round" opacity="0.35"/>
</svg>
